P2
# Imagem teste
5 5
255
100 100  10  10 100
 50 150 150 100  50
 50 150 150 100  50
 50 200 200 200  50
100 200 200 100 100